<svg xmlns="http://www.w3.org/2000/svg" width="1080" height="2280" viewBox="0 0 1080 2280" fill="none">
  <rect width="1080" height="2280" fill="#F7F8FA"/>
  <rect width="1080" height="280" fill="#79AFA6"/>
  <text x="540" y="165" text-anchor="middle" font-family="Noto Sans, sans-serif" font-size="64" fill="#F3FBFA" font-weight="700">Timeline</text>
  <rect x="36" y="326" width="1008" height="300" rx="36" fill="#FFFFFF" stroke="#DFE6EC"/>
  <text x="72" y="430" font-family="Noto Sans, sans-serif" font-size="56" fill="#6C7E8B">Reference day: Mar 3, 2026</text>
  <rect x="72" y="468" width="936" height="96" rx="48" fill="#ECEEF1"/>
  <circle cx="860" cy="516" r="42" fill="#FFFFFF"/>
  <text x="540" y="530" text-anchor="middle" font-family="Noto Sans, sans-serif" font-size="50" fill="#27343B" font-weight="700">1 Day · 7 Days · Month</text>
  <rect x="36" y="660" width="1008" height="250" rx="36" fill="#FFFFFF" stroke="#DFE6EC"/>
  <text x="64" y="730" font-family="Noto Sans, sans-serif" font-size="56" fill="#6D7A84" font-weight="700">Today's Flow</text>
  <rect x="64" y="764" width="308" height="116" rx="22" fill="#EAF0FB"/>
  <rect x="388" y="764" width="308" height="116" rx="22" fill="#F5EDF0"/>
  <rect x="712" y="764" width="308" height="116" rx="22" fill="#EEF2F6"/>
  <text x="90" y="835" font-family="Noto Sans, sans-serif" font-size="48" fill="#26363F" font-weight="700">42h 44m</text>
  <text x="412" y="835" font-family="Noto Sans, sans-serif" font-size="48" fill="#26363F" font-weight="700">205h</text>
  <text x="736" y="835" font-family="Noto Sans, sans-serif" font-size="48" fill="#26363F" font-weight="700">1h 22m</text>
  <rect x="36" y="944" width="1008" height="1180" rx="36" fill="#FFFFFF" stroke="#DFE6EC"/>
  <rect x="64" y="980" width="952" height="86" rx="43" fill="#ECEEF1"/>
  <text x="272" y="1038" text-anchor="middle" font-family="Noto Sans, sans-serif" font-size="52" fill="#202E35" font-weight="700">Calendar</text>
  <text x="760" y="1038" text-anchor="middle" font-family="Noto Sans, sans-serif" font-size="52" fill="#5A6871">List</text>
  <g stroke="#DCE3EB">
    <line x1="80" y1="1160" x2="1000" y2="1160"/>
    <line x1="80" y1="1320" x2="1000" y2="1320"/>
    <line x1="80" y1="1480" x2="1000" y2="1480"/>
    <line x1="80" y1="1640" x2="1000" y2="1640"/>
    <line x1="80" y1="1800" x2="1000" y2="1800"/>
    <line x1="220" y1="1120" x2="220" y2="2050"/>
    <line x1="360" y1="1120" x2="360" y2="2050"/>
    <line x1="500" y1="1120" x2="500" y2="2050"/>
    <line x1="640" y1="1120" x2="640" y2="2050"/>
    <line x1="780" y1="1120" x2="780" y2="2050"/>
    <line x1="920" y1="1120" x2="920" y2="2050"/>
  </g>
  <rect x="644" y="1240" width="128" height="44" rx="12" fill="#F0D79A"/>
  <rect x="644" y="1294" width="128" height="44" rx="12" fill="#8FC7E1"/>
  <rect x="220" y="1488" width="128" height="44" rx="12" fill="#F0D79A"/>
  <rect x="360" y="1488" width="128" height="44" rx="12" fill="#A9BFE8"/>
  <rect x="80" y="2090" width="920" height="150" rx="75" fill="#FFFFFF" stroke="#DFE6EC"/>
  <text x="540" y="2184" text-anchor="middle" font-family="Noto Sans, sans-serif" font-size="42" fill="#89A4CC" font-weight="700">Today · Timeline · Plans · Patterns · Settings</text>
</svg>
